# xmcd
#
# Track frame offsets:
#	150
#	12862
#	22800
#	35330
#	45810
#	57492
#	71785
#	85610
#	99005
#	108802
#	126580
#	138027
#	149020
#	164610
#	177055
#	186620
#	199872
#	209950
#	218777
#	239710
#
# Disc length: 3366 seconds
#
# Revision: 1
# Processed by: cddbd v1.5.1PL0 Copyright (c) Steve Scherf et al.
# Submitted via: CDex 1.50Beta5
#
DISCID=240d2414
DTITLE=キャシー・カレン、他 - 英語でうたうメリー・クリスマス
DYEAR=1900
DGENRE=Unclassifiable
TTITLE0=聖しこの夜
TTITLE1=おめでとうクリスマス
TTITLE2=サンタが町にやってくる
TTITLE3=ウィンター・ワンダー・ランド
TTITLE4=エーデルワイス
TTITLE5=ホワイト・クリスマス
TTITLE6=とんできたサンタ・クロース
TTITLE7=ママがサンタにキッスした
TTITLE8=もろびとこぞりて
TTITLE9=神のみこは
TTITLE10=もみの木
TTITLE11=サンタ・クロースがやってくる
TTITLE12=シルバー・ベル
TTITLE13=赤鼻のトナカイ
TTITLE14=雪だるま
TTITLE15=聖者の行進
TTITLE16=こげよマイケル
TTITLE17=ロッカバイ・ベイビー
TTITLE18=グリーンスリーヴス
TTITLE19=ジングル・ベル
EXTD=
EXTT0=
EXTT1=
EXTT2=
EXTT3=
EXTT4=
EXTT5=
EXTT6=
EXTT7=
EXTT8=
EXTT9=
EXTT10=
EXTT11=
EXTT12=
EXTT13=
EXTT14=
EXTT15=
EXTT16=
EXTT17=
EXTT18=
EXTT19=
PLAYORDER=
